<svg width="96" height="96" xmlns="http://www.w3.org/2000/svg" xmlns:xlink="http://www.w3.org/1999/xlink" xml:space="preserve" overflow="hidden"><defs><clipPath id="clip0"><rect x="180" y="417" width="96" height="96"/></clipPath></defs><g clip-path="url(#clip0)" transform="translate(-180 -417)"><path d="M253 453.9 253 445.32C242.078 445.319 233.175 454.079 233 465L233 485 253 485 253 465 241.59 465C241.763 458.822 246.82 453.903 253 453.9ZM239.591 464.944 239.533 467 251 467 251 483 235 483 235 465.032C235.186 455.991 242.018 448.476 251 447.432L251 452.046C244.561 452.988 239.74 458.438 239.591 464.944Z"/><path d="M223 453.9 223 445.32C212.078 445.319 203.175 454.079 203 465L203 485 223 485 223 465 211.59 465C211.763 458.822 216.82 453.903 223 453.9ZM209.591 464.944 209.533 467 221 467 221 483 205 483 205 465.032C205.186 455.991 212.018 448.476 221 447.432L221 452.046C214.561 452.988 209.74 458.438 209.591 464.944Z"/></g></svg>