<svg width="96" height="96" xmlns="http://www.w3.org/2000/svg" xmlns:xlink="http://www.w3.org/1999/xlink" xml:space="preserve" overflow="hidden"><defs><clipPath id="clip0"><rect x="557" y="530" width="96" height="96"/></clipPath></defs><g clip-path="url(#clip0)" transform="translate(-557 -530)"><path d="M580 590.1 580 598.68C590.922 598.681 599.825 589.921 600 579L600 559 580 559 580 579 591.41 579C591.237 585.178 586.18 590.097 580 590.1ZM593.409 579.056 593.467 577 582 577 582 561 598 561 598 578.968C597.811 588.007 590.981 595.521 582 596.568L582 591.954C588.439 591.012 593.26 585.562 593.409 579.056Z"/><path d="M610 590.1 610 598.68C620.922 598.681 629.825 589.921 630 579L630 559 610 559 610 579 621.41 579C621.237 585.178 616.18 590.097 610 590.1ZM623.409 579.056 623.467 577 612 577 612 561 628 561 628 578.968C627.811 588.007 620.981 595.521 612 596.568L612 591.954C618.439 591.012 623.26 585.562 623.409 579.056Z"/></g></svg>